<?xml version="1.0" encoding="UTF-8" standalone="no"?>
        <svg 
    viewBox="0 -93.75 440.625 56.25"
    width="440.625"
    height="150"
   xmlns="http://www.w3.org/2000/svg"
   xmlns:svg="http://www.w3.org/2000/svg">
   <path d="M75-18.75L140.63-18.75L140.63-28.13L75-28.13Q75-28.13 75-46.88L75-46.88L103.13-46.88L103.13-37.50L112.50-37.50Q112.50-37.50 112.50-93.75L112.50-93.75L75-93.75Q75-93.75 75-112.50L75-112.50L131.25-112.50L131.25-121.88L75-121.88L75-131.25L65.63-131.25Q65.63-131.25 65.63-93.75L65.63-93.75L28.13-93.75Q28.13-93.75 28.13-37.50L28.13-37.50L37.50-37.50L37.50-46.88L65.63-46.88Q65.63-46.88 65.63-28.13L65.63-28.13L0-28.13L0-18.75L65.63-18.75Q65.63-18.75 65.63 18.75L65.63 18.75L75 18.75Q75 18.75 75-18.75L75-18.75ZM103.13-56.25L37.50-56.25L37.50-65.63L103.13-65.63L103.13-56.25ZM103.13-75L37.50-75L37.50-84.38L103.13-84.38L103.13-75ZM150 9.38L290.63 9.38L290.63 0L243.75 0L243.75-28.13L271.88-28.13Q271.88-28.13 271.88-84.38L271.88-84.38L243.75-84.38L243.75-112.50L281.25-112.50L281.25-121.88L159.38-121.88L159.38-112.50L196.88-112.50L196.88-84.38L168.75-84.38Q168.75-84.38 168.75-28.13L168.75-28.13L196.88-28.13L196.88 0L150 0L150 9.38ZM234.38 0L206.25 0Q206.25 0 206.25-37.50L206.25-37.50L178.13-37.50Q178.13-37.50 178.13-75L178.13-75L206.25-75Q206.25-75 206.25-112.50L206.25-112.50L234.38-112.50Q234.38-112.50 234.38-75L234.38-75L262.50-75Q262.50-75 262.50-37.50L262.50-37.50L234.38-37.50Q234.38-37.50 234.38 0L234.38 0ZM403.13 9.38L440.63 9.38L440.63 0L421.88 0L421.88-28.13L440.63-28.13L440.63-37.50L421.88-37.50L421.88-65.63L431.25-65.63L431.25-56.25L440.63-56.25Q440.63-56.25 440.63-75L440.63-75L393.75-75L393.75-65.63L412.50-65.63L412.50 0L403.13 0L403.13 9.38ZM328.13-56.25L346.88-56.25L346.88-65.63L328.13-65.63Q328.13-65.63 328.13-103.13L328.13-103.13L346.88-103.13L346.88-93.75L356.25-93.75Q356.25-93.75 356.25-18.75L356.25-18.75L346.88-18.75Q346.88-18.75 346.88 0L346.88 0L337.50 0L337.50 9.38L328.13 9.38L328.13 18.75L337.50 18.75L337.50 9.38L346.88 9.38L346.88 0L356.25 0Q356.25 0 356.25-18.75L356.25-18.75L365.63-18.75L365.63-65.63L375-65.63Q375-65.63 375-9.38L375-9.38L365.63-9.38L365.63 0L384.38 0L384.38 9.38L375 9.38L375 18.75L384.38 18.75L384.38 9.38L393.75 9.38L393.75 0L384.38 0Q384.38 0 384.38-75L384.38-75L365.63-75Q365.63-75 365.63-93.75L365.63-93.75L384.38-93.75L384.38-84.38L393.75-84.38L393.75-93.75L384.38-93.75L384.38-103.13L375-103.13Q375-103.13 375-121.88L375-121.88L365.63-121.88Q365.63-121.88 365.63-103.13L365.63-103.13L346.88-103.13L346.88-112.50L300-112.50L300-103.13L318.75-103.13Q318.75-103.13 318.75-65.63L318.75-65.63L300-65.63L300-56.25L318.75-56.25Q318.75-56.25 318.75-18.75L318.75-18.75L300-18.75L300-9.38L309.38-9.38L309.38 0L318.75 0L318.75-9.38L328.13-9.38L328.13-18.75L346.88-18.75L346.88-28.13L328.13-28.13L328.13-56.25ZM393.75-93.75L440.63-93.75L440.63-103.13L412.50-103.13L412.50-131.25L403.13-131.25L403.13-103.13L393.75-103.13L393.75-93.75ZM393.75-46.88L393.75 0L403.13 0L403.13-46.88L393.75-46.88ZM356.25-121.88L365.63-121.88L365.63-131.25L356.25-131.25L356.25-121.88Z"/>
    </svg>
        