<svg width="223" height="223" version="1.1" xmlns="http://www.w3.org/2000/svg" xmlns:xlink="http://www.w3.org/1999/xlink"><path d="M192.67 160.97L192.90 164.31Q191.33 166.32 188.66 166.32L188.66 166.32Q186.21 166.32 180.18 165.87L180.18 165.87Q149.19 163.87 127.78 163.87L127.78 163.87Q90.98 163.87 58.43 167.66L58.43 167.66L28.10 172.56L26.76 172.56Q21.18 173.01 16.06 168.77L16.06 168.77Q13.83 166.99 12.27 164.54L12.27 164.54Q12.27 162.31 14.72 162.31L14.72 162.31L72.47 158.96Q73.37 132.20 73.37 129.97L73.37 129.97Q73.14 117.93 70.69 116.59L70.69 116.59Q65.56 116.59 52.85 121.27L52.85 121.27L44.15 126.40Q43.48 126.63 42.82 126.63L42.82 126.63Q39.25 126.63 37.46 121.94L37.46 121.94Q37.02 120.61 37.02 119.71L37.02 119.71Q37.02 118.60 39.02 110.35L39.02 110.35Q39.69 107.89 39.69 106.11L39.69 106.11Q39.69 92.73 33.23 82.70L33.23 82.70Q32.34 81.13 31.22 79.57L31.22 79.57Q31.22 78.01 33.90 76.45L33.90 76.45Q35.01 76.45 40.81 78.46L40.81 78.46Q42.82 78.90 44.15 78.90Q45.49 78.90 74.93 69.09L74.93 69.09L73.81 42.11Q73.14 35.64 71.81 30.29L71.81 30.29Q62.66 29.84 56.42 26.05L56.42 26.05Q53.30 24.27 53.30 22.04L53.30 22.04Q55.53 20.26 62.22 20.26L62.22 20.26Q84.96 19.36 115.07 13.57L115.07 13.57L137.37 8.44Q138.48 8.21 139.60 8.21L139.60 8.21Q144.95 7.54 150.08 9.55L150.08 9.55Q153.87 10.89 156.10 13.34L156.10 13.34Q156.10 16.46 154.09 17.80L154.09 17.80Q153.20 18.47 125.77 23.15L125.77 23.15L124.66 23.38L129.34 26.95L130.68 29.18L130.68 29.84L128.67 37.43Q123.10 60.84 126.44 66.19L126.44 66.19Q126.89 66.86 127.33 67.09L127.33 67.09Q130.23 66.86 147.63 61.96L147.63 61.96Q149.63 61.29 151.42 60.84L151.42 60.84Q165.02 63.07 173.72 71.55L173.72 71.55Q173.72 75.34 168.37 80.91L168.37 80.91L165.02 84.70L164.80 85.15Q160.56 91.84 157.88 101.87L157.88 101.87L163.01 105.44Q164.35 107.00 164.35 108.79L164.35 108.79L163.46 109.46Q136.92 112.13 127.11 115.03L127.11 115.03Q126.66 115.25 126.00 115.25L126.00 115.25Q124.66 122.17 122.65 148.93L122.65 148.93Q122.43 152.27 122.20 154.95L122.20 154.95Q131.12 155.84 159.00 151.38L159.00 151.38Q168.37 150.04 173.27 149.60L173.27 149.60Q179.07 149.15 188.66 157.18L188.66 157.18Q191.11 159.18 192.67 160.97L192.67 160.97ZM150.08 71.55L150.08 71.55Q138.48 71.55 127.33 75.34L127.33 75.34L119.75 79.35L117.08 79.80Q111.28 75.78 111.28 69.76L111.28 69.76Q117.08 59.95 115.74 38.76L115.74 38.76Q115.07 30.51 113.51 25.16L113.51 25.16Q88.53 28.28 81.84 29.62L81.84 29.62Q88.75 34.30 88.75 39.88L88.75 39.88Q88.75 40.33 87.19 47.68L87.19 47.68Q86.97 48.58 86.97 49.02L86.97 49.02Q85.41 58.61 85.41 70.21L85.41 70.21Q87.64 70.65 90.31 73.55L90.31 73.55Q90.31 74.89 88.98 75.78L88.98 75.78Q59.99 81.80 48.61 85.15L48.61 85.15L48.61 111.91L50.18 113.92Q51.07 113.92 71.36 107.23L71.36 107.23Q74.93 106.11 75.60 106.11L75.60 106.11Q82.06 106.78 87.19 111.02L87.19 111.02Q91.88 114.81 88.09 118.38L88.09 118.38Q84.29 129.30 84.52 152.94L84.52 152.94Q84.52 156.29 84.52 158.07L84.52 158.07Q90.76 157.18 112.61 155.62L112.61 155.62L112.84 128.63Q112.39 122.39 111.50 117.48L111.50 117.48L109.72 110.57Q109.72 108.56 110.83 107.00L110.83 107.00Q113.51 106.11 115.96 107.23L115.96 107.23Q117.52 107.67 118.64 108.79L118.64 108.79Q133.58 106.33 145.84 102.77L145.84 102.77Q150.53 85.59 150.75 85.15L150.75 85.15Q152.75 74.89 150.08 71.55Z" stroke="#000" fill="black" /></svg>