<svg width="223" height="223" version="1.1" xmlns="http://www.w3.org/2000/svg" xmlns:xlink="http://www.w3.org/1999/xlink"><path d="M194.23 147.18L194.23 147.18Q194.23 150.53 191.33 151.19L191.33 151.19Q189.77 151.19 178.85 150.97L178.85 150.97Q126.66 150.97 116.85 151.42L116.85 151.42Q113.51 151.64 110.39 151.86L110.39 151.86L109.05 152.53L107.26 200.03Q106.82 210.07 102.13 216.53L102.13 216.53Q99.68 216.53 98.34 214.08L98.34 214.08Q96.11 210.29 96.11 153.65L96.11 153.65Q74.26 154.09 49.73 159.00L49.73 159.00L29.66 163.68Q29.21 163.68 28.54 163.68L28.54 163.68Q22.08 164.35 16.50 161.01L16.50 161.01Q12.93 159.00 10.93 156.10L10.93 156.10Q10.93 154.09 13.83 153.65L13.83 153.65Q17.84 152.98 40.14 151.42L40.14 151.42Q86.52 146.96 95.67 145.84L95.67 145.84Q95.67 140.49 91.88 124.43L91.88 124.43L74.48 126.66Q73.14 128.67 72.92 131.79L72.92 131.79Q68.91 131.79 65.56 125.77L65.56 125.77Q64.00 122.87 61.10 110.16L61.10 110.16Q60.66 107.93 60.21 106.37L60.21 106.37Q53.97 87.42 50.40 81.17L50.40 81.17L49.06 78.94Q49.06 76.71 51.07 75.82L51.07 75.82Q60.66 79.39 77.16 75.82L77.16 75.82Q89.65 73.14 95.00 73.14L95.00 73.14Q95.00 41.92 91.43 31.44L91.43 31.44L88.31 25.87Q88.09 24.98 88.09 23.86L88.09 23.86L89.87 22.30Q97.67 22.30 103.92 26.54L103.92 26.54Q105.92 27.88 106.82 29.21Q107.71 30.55 107.71 31.89L107.71 31.89Q107.71 32.78 105.92 39.47L105.92 39.47L105.48 42.82Q108.60 42.82 126.44 37.91L126.44 37.91Q146.73 32.34 151.64 37.91L151.64 37.91Q151.86 39.69 151.19 40.81L151.19 40.81L149.63 41.92Q141.60 46.38 119.97 48.61L119.97 48.61Q109.94 49.73 105.48 48.84L105.48 48.84L103.25 71.81L133.35 68.02Q138.71 67.57 143.39 67.57L143.39 67.57Q152.75 74.04 153.87 75.15L153.87 75.15L156.99 79.17L157.66 80.06Q157.66 82.06 153.87 85.86L153.87 85.86Q152.09 87.64 151.42 88.75L151.42 88.75Q148.52 94.11 142.50 112.17L142.50 112.17Q140.04 119.75 137.81 124.43L137.81 124.43Q134.02 127.56 131.35 127.56L131.35 127.56Q127.56 124.66 126.22 121.98L126.22 121.98Q113.28 121.98 103.92 123.10L103.92 123.10L103.25 123.77L109.27 126.89Q110.16 127.78 110.61 129.56L110.61 129.56Q110.83 131.35 109.49 140.94L109.49 140.94Q109.27 142.72 109.27 144.28L109.27 144.28L112.61 144.28L167.03 136.25Q178.62 134.47 187.54 141.16L187.54 141.16Q190.66 143.39 194.23 147.18ZM136.70 80.06L136.70 80.06Q134.47 75.60 126.44 75.82L126.44 75.82L112.39 77.83Q75.82 83.40 73.59 83.85L73.59 83.85Q69.80 84.74 66.23 85.63L66.23 85.63Q67.79 94.78 68.68 97.45L68.68 97.45Q73.59 97.45 93.66 93.66L93.66 93.66Q105.03 91.43 111.95 91.88L111.95 91.88Q119.75 92.32 121.09 98.12L121.09 98.12Q117.52 103.03 88.09 104.14L88.09 104.14L84.07 104.36Q76.04 104.36 70.02 102.58L70.02 102.58L74.04 119.53Q93.44 117.08 115.51 112.62L115.51 112.62Q118.19 112.17 119.31 112.17L119.31 112.17Q122.65 112.17 124.66 113.95L124.66 113.95Q127.11 113.51 128.45 111.95L128.45 111.95Q131.57 108.38 135.58 88.75L135.58 88.75Q136.92 82.06 136.70 80.06Z" stroke="#000" fill="black" /></svg>