<svg width="223" height="223" version="1.1" xmlns="http://www.w3.org/2000/svg" xmlns:xlink="http://www.w3.org/1999/xlink"><path d="M180.18 44.93L180.18 44.93Q180.18 47.38 178.18 48.72L178.18 48.72Q175.72 48.95 158.55 54.30L158.55 54.30Q141.83 59.65 131.79 55.41L131.79 55.41L123.32 67.01Q119.97 70.35 116.18 71.69L116.18 71.69L116.18 69.24Q128.89 45.82 130.23 42.70L130.23 42.70Q137.15 27.76 137.15 17.95L137.15 17.95L134.69 10.37Q134.69 8.58 136.48 8.14L136.48 8.14Q141.16 6.58 148.30 12.37L148.30 12.37Q150.75 14.38 151.86 16.16L151.86 16.16Q151.64 20.18 136.48 47.38L136.48 47.38Q135.14 49.84 134.47 50.73L134.47 50.73Q142.50 50.28 158.78 44.26L158.78 44.26Q165.69 41.81 166.58 41.59L166.58 41.59Q170.37 40.92 175.06 42.26L175.06 42.26Q178.62 43.15 180.18 44.93ZM82.96 19.73L82.96 19.73Q87.86 18.39 97.45 23.52L97.45 23.52Q103.03 26.42 104.14 29.32L104.14 29.32Q104.81 30.88 104.81 34.90L104.81 34.90Q104.81 38.46 104.14 39.13L104.14 39.13Q101.02 43.37 91.65 32.89L91.65 32.89Q89.42 30.44 88.75 29.99L88.75 29.99Q82.96 24.86 82.96 19.73ZM200.03 168.03L202.04 169.81Q196.02 172.71 185.54 172.71L185.54 172.71L169.70 172.71Q162.79 172.71 123.54 131.68L123.54 131.68L117.97 143.05L117.97 143.27Q105.03 165.57 92.55 170.26L92.55 170.26Q92.77 165.80 97.67 159.55L97.67 159.55Q110.61 143.94 115.29 129.67L115.29 129.67Q117.30 123.65 117.30 116.96L117.30 116.96L115.96 107.37L115.96 107.15Q115.96 102.69 126.66 107.59L126.66 107.59Q130.23 109.38 131.35 110.49L131.35 110.49L131.35 113.62L124.88 127.44L139.38 139.71L139.15 91.54Q139.15 87.97 135.81 85.52L135.81 85.52Q125.55 92.21 118.64 89.31L118.64 89.31L117.30 88.42L115.96 86.41L150.75 73.48Q159.00 70.58 165.24 69.91L165.24 69.91Q171.93 69.02 185.54 78.38L185.54 78.38Q184.87 80.39 180.41 82.40L180.41 82.40Q176.39 84.18 166.80 92.43L166.80 92.43L162.57 96.00L161.23 96.00Q161.45 93.99 164.13 83.51L164.13 83.51Q164.80 81.06 165.02 79.05L165.02 79.05Q161.90 74.14 143.61 82.84L143.61 82.84L149.86 88.42Q152.31 91.09 150.53 94.21L150.53 94.21L149.19 114.06Q151.64 114.06 159.67 111.39L159.67 111.39Q164.57 109.60 168.14 110.49L168.14 110.49Q172.83 111.83 174.61 113.62L174.61 113.62Q174.61 115.85 170.59 116.74L170.59 116.74L168.81 117.41L149.63 120.53L149.19 121.42L148.30 145.28L148.30 145.50Q162.12 155.99 191.56 165.35L191.56 165.35Q185.54 163.34 200.03 168.03L200.03 168.03ZM117.97 57.42L117.97 57.42L117.30 59.43L88.98 70.35L88.75 70.35Q93.21 74.37 93.66 76.37L93.66 76.37Q93.88 77.49 93.88 78.38L93.88 78.38Q92.55 80.61 91.88 83.73L91.88 83.73Q110.39 83.73 113.51 91.76L113.51 91.76Q114.40 93.77 111.95 96.22L111.95 96.22Q111.05 97.11 110.61 97.78L110.61 97.78Q108.38 101.80 104.14 122.98L104.14 122.98Q99.01 149.74 91.21 155.99L91.21 155.99L87.64 158.22L83.63 158.88Q82.29 157.99 80.28 153.31L80.28 153.31Q79.61 152.19 79.17 151.30L79.17 151.30Q78.72 150.63 73.37 145.06L73.37 145.06Q71.58 143.05 70.69 141.49L70.69 141.49Q72.03 140.60 78.50 142.83L78.50 142.83Q83.40 144.61 86.08 143.50L86.08 143.50Q93.44 137.25 96.34 120.75L96.34 120.75Q97.90 112.50 98.34 110.94L98.34 110.94Q101.91 97.78 100.13 93.10L100.13 93.10Q98.34 89.75 90.31 89.09L90.31 89.09Q79.61 122.31 65.56 142.61L65.56 142.61Q57.53 154.20 50.62 157.32L50.62 157.32L49.95 156.21Q50.18 155.32 51.07 153.98L51.07 153.98Q68.46 124.99 73.59 112.72L73.59 112.72Q80.50 96.22 81.84 81.06L81.84 81.06L81.39 75.48Q80.95 73.70 80.28 72.58L80.28 72.58Q75.37 73.48 71.14 72.36L71.14 72.36Q68.24 71.47 65.78 69.91L65.78 69.91Q66.01 68.57 68.91 67.23L68.91 67.23Q84.96 62.77 96.34 58.09L96.34 58.09Q104.14 54.52 105.70 54.30L105.70 54.30Q109.27 53.63 113.28 54.97L113.28 54.97Q116.41 55.86 117.97 57.42ZM71.81 39.36L71.81 39.36Q70.91 41.14 70.25 41.59L70.25 41.59L47.28 48.50Q53.30 52.07 51.51 62.99L51.51 62.99Q50.40 69.68 50.40 71.02L50.40 71.02L49.95 83.73Q55.08 82.62 59.32 83.29L59.32 83.29Q62.89 83.73 65.56 85.52L65.56 85.52Q65.56 89.75 52.85 92.88L52.85 92.88L49.73 93.77L47.95 126.55Q50.18 126.10 57.31 122.09L57.31 122.09Q60.66 120.08 63.33 119.86L63.33 119.86Q63.33 122.98 56.87 128.11L56.87 128.11Q54.19 130.56 37.69 142.16L37.69 142.16Q28.32 149.07 23.19 154.65L23.19 154.65Q14.72 153.53 9.59 149.96L9.59 149.96Q5.35 146.84 10.26 144.17L10.26 144.17L19.85 140.82Q26.54 138.15 39.02 131.68L39.02 131.68Q40.81 125.21 40.36 103.13L40.36 103.13Q40.36 99.57 40.36 97.11L40.36 97.11Q28.54 97.11 24.75 95.55L24.75 95.55Q23.41 95.11 22.30 94.44L22.30 94.44Q22.52 91.98 40.14 87.97L40.14 87.97Q41.03 71.25 39.92 60.99L39.92 60.99Q39.47 55.64 38.36 50.73L38.36 50.73Q28.32 49.61 26.31 48.72L26.31 48.72Q23.86 47.83 22.30 46.05L22.30 46.05Q22.75 44.93 25.42 43.59L25.42 43.59Q32.34 42.70 53.97 36.01L53.97 36.01Q55.08 35.57 56.20 35.34L56.20 35.34Q61.10 33.78 66.01 35.34L66.01 35.34Q69.80 36.46 71.81 39.36Z" stroke="#000" fill="black" /></svg>